<?xml version="1.0" encoding="UTF-8"?>
<svg xmlns:xodm="http://www.corel.com/coreldraw/odm/2003" xmlns="http://www.w3.org/2000/svg" xmlns:xlink="http://www.w3.org/1999/xlink" version="1.1" id="Layer_1" x="0px" y="0px" viewBox="0 0 2500 2500" xml:space="preserve">
<g id="Layer_x0020_1">
	<g id="_1942794901776">
		<path fill-rule="evenodd" clip-rule="evenodd" fill="#1B5AFE" d="M1250,0c690.4,0,1250,559.6,1250,1250s-559.6,1250-1250,1250    S0,1940.4,0,1250S559.6,0,1250,0z"></path>
		<g>
			<path fill-rule="evenodd" clip-rule="evenodd" fill="#FFFFFF" d="M649.5,451.4h1201c108.9,0,198.1,89.1,198.1,198.1v1201     c0,108.9-89.1,198.1-198.1,198.1h-1201c-108.9,0-198.1-89.1-198.1-198.1v-1201C451.4,540.6,540.6,451.4,649.5,451.4L649.5,451.4z     "></path>
			<path fill-rule="evenodd" clip-rule="evenodd" fill="#1B5AFE" d="M653.9,508.6h1192.2c79.9,0,145.3,65.4,145.3,145.3v1192.2     c0,79.9-65.4,145.3-145.3,145.3H653.9c-79.9,0-145.3-65.4-145.3-145.3V653.9C508.6,574,574,508.6,653.9,508.6z"></path>
			<path fill-rule="evenodd" clip-rule="evenodd" fill="#FFFFFF" d="M561,1465H1939v371.6c0,54.5-44.6,99.1-99.1,99.1H660     c-54.5,0-99.1-44.6-99.1-99.1L561,1465L561,1465z"></path>
			<path fill="#1B5AFE" d="M778.1,1865.5v-252.3h-89.9v-51.3H929v51.3h-89.5v252.3H778.1z M968.8,1561.9h61.5v164.5     c0,26.1,0.8,43,2.3,50.7c2.6,12.4,8.8,22.5,18.5,30c9.8,7.6,23.2,11.3,40.1,11.3c17.2,0,30.2-3.5,38.9-10.7     c8.8-7.1,14-15.8,15.8-26.2s2.7-27.6,2.7-51.6v-168h61.5v159.6c0,36.5-1.6,62.3-4.9,77.3c-3.3,15-9.4,27.8-18.3,38.2     c-8.8,10.4-20.7,18.6-35.5,24.7c-14.9,6.1-34.3,9.3-58.2,9.3c-28.9,0-50.8-3.3-65.7-10c-14.9-6.7-26.7-15.4-35.4-26.1     c-8.7-10.7-14.3-21.9-17.1-33.7c-4-17.4-6-43.1-6-77.1L968.8,1561.9L968.8,1561.9z M1258.9,1767.1l59.8-5.9     c3.6,20,10.8,34.6,21.8,44c11,9.4,25.7,14.1,44.3,14.1c19.6,0,34.5-4.2,44.4-12.5c10-8.3,15-18.1,15-29.2     c0-7.2-2.1-13.3-6.3-18.4c-4.2-5-11.5-9.4-22-13.1c-7.1-2.5-23.4-6.9-48.8-13.3c-32.7-8.2-55.7-18.2-68.9-30.2     c-18.6-16.8-27.9-37.2-27.9-61.3c0-15.5,4.4-30,13.1-43.5c8.8-13.5,21.3-23.7,37.8-30.8c16.5-7.1,36.2-10.6,59.6-10.6     c38,0,66.6,8.4,85.7,25.3c19.2,16.9,29.3,39.4,30.2,67.6l-61.5,2.1c-2.6-15.7-8.2-26.9-16.8-33.8s-21.4-10.3-38.5-10.3     c-17.7,0-31.5,3.7-41.5,11c-6.4,4.7-9.7,11-9.7,18.9c0,7.2,3,13.4,9.1,18.4c7.7,6.6,26.4,13.4,56.2,20.4     c29.7,7,51.7,14.3,65.9,21.8c14.3,7.6,25.4,17.8,33.5,30.9c8,13.1,12.1,29.2,12.1,48.3c0,17.4-4.8,33.7-14.5,48.9     c-9.7,15.2-23.3,26.5-41,33.8c-17.7,7.4-39.7,11.1-66.1,11.1c-38.4,0-67.8-8.8-88.4-26.6     C1275.2,1826.8,1262.9,1801,1258.9,1767.1L1258.9,1767.1z M1557.8,1561.9h111.8c25.2,0,44.4,1.9,57.7,5.8     c17.7,5.2,33,14.6,45.7,28c12.7,13.4,22.3,29.7,29,49.2c6.6,19.4,9.9,43.3,9.9,71.7c0,25-3.1,46.5-9.3,64.6     c-7.6,22.1-18.4,40-32.4,53.6c-10.6,10.4-24.9,18.4-43,24.2c-13.5,4.3-31.5,6.4-54.1,6.4h-115.1L1557.8,1561.9L1557.8,1561.9z      M1619.3,1613.2v201h45.6c17,0,29.3-1,36.9-2.9c10-2.5,18.2-6.7,24.7-12.6c6.6-5.9,11.9-15.7,16-29.3c4.2-13.6,6.2-32.2,6.2-55.6     c0-23.5-2.1-41.4-6.2-54c-4.1-12.6-9.9-22.3-17.3-29.4c-7.4-7-16.8-11.8-28.3-14.3c-8.5-1.9-25.2-2.9-50.1-2.9L1619.3,1613.2     L1619.3,1613.2z"></path>
			<g>
				<path fill-rule="evenodd" clip-rule="evenodd" fill="#FFFFFF" d="M943.5,678.1v205.6c113.5,0,205.6-92,205.6-205.6H943.5z"></path>
				<path fill-rule="evenodd" clip-rule="evenodd" fill="#FFFFFF" d="M1149.1,1295.6V881.7l0,0c0-1.7,0-3.5,0.1-5.2l0,0      c0-1.7,0.1-3.5,0.2-5.2c0.1-1.7,0.2-3.5,0.3-5.2c0.1-1.7,0.3-3.4,0.5-5.1c0.2-1.7,0.4-3.4,0.6-5.1l0,0c0.2-1.7,0.5-3.4,0.7-5.1      c0.3-1.7,0.5-3.4,0.8-5l0,0c0.3-1.7,0.6-3.3,1-5l0,0c0.3-1.7,0.7-3.3,1.1-4.9l0,0c0.4-1.6,0.8-3.3,1.2-4.9s0.9-3.2,1.3-4.8      c0.5-1.6,0.9-3.2,1.4-4.8l0,0c0.5-1.6,1-3.2,1.6-4.8l0,0c0.5-1.6,1.1-3.1,1.7-4.7c0.6-1.6,1.2-3.1,1.8-4.6l0,0      c0.6-1.5,1.2-3.1,1.9-4.6l0,0c0.6-1.5,1.3-3,2-4.5l0,0c0.7-1.5,1.4-3,2.1-4.5c0.7-1.5,1.4-3,2.2-4.4c0.8-1.5,1.5-2.9,2.3-4.4      c0.8-1.4,1.6-2.9,2.4-4.3c0.8-1.4,1.7-2.8,2.5-4.2c0.9-1.4,1.7-2.8,2.6-4.2c0.9-1.4,1.8-2.7,2.7-4.1l0,0c0.9-1.4,1.8-2.7,2.8-4      c1-1.3,1.9-2.7,2.9-4c1-1.3,2-2.6,3-3.9l0,0c1-1.3,2-2.5,3.1-3.8c1-1.3,2.1-2.5,3.2-3.7c1.1-1.2,2.2-2.5,3.3-3.7l0,0      c1.1-1.2,2.2-2.4,3.3-3.6c1.1-1.2,2.3-2.4,3.4-3.5c1.1-1.2,2.3-2.3,3.5-3.4l0,0c1.2-1.1,2.4-2.2,3.6-3.3      c1.2-1.1,2.4-2.2,3.7-3.3c1.2-1.1,2.5-2.1,3.7-3.2l0,0c1.3-1,2.5-2.1,3.8-3.1c1.3-1,2.6-2,3.9-3c1.3-1,2.6-1.9,4-2.9      c1.3-0.9,2.7-1.9,4-2.8c1.4-0.9,2.7-1.8,4.1-2.7c1.4-0.9,2.8-1.8,4.2-2.6c1.4-0.9,2.8-1.7,4.2-2.5c1.4-0.8,2.9-1.6,4.3-2.4      c1.4-0.8,2.9-1.6,4.4-2.3c1.5-0.7,2.9-1.5,4.4-2.2c1.5-0.7,3-1.4,4.5-2.1l0,0c1.5-0.7,3-1.3,4.5-2c1.5-0.6,3-1.3,4.6-1.9      c1.5-0.6,3.1-1.2,4.6-1.8c1.6-0.6,3.1-1.1,4.7-1.7c1.6-0.5,3.2-1.1,4.8-1.6c1.6-0.5,3.2-1,4.8-1.4c1.6-0.5,3.2-0.9,4.8-1.3      c1.6-0.4,3.3-0.8,4.9-1.2s3.3-0.7,4.9-1.1c1.7-0.3,3.3-0.7,5-1c1.7-0.3,3.3-0.6,5-0.8c1.7-0.3,3.4-0.5,5.1-0.7      c1.7-0.2,3.4-0.4,5.1-0.6c1.7-0.2,3.4-0.3,5.1-0.5c1.7-0.1,3.4-0.2,5.2-0.3c1.7-0.1,3.5-0.2,5.2-0.2c1.7-0.1,3.5-0.1,5.2-0.1      h203.7v203.6h-203.7v413.9L1149.1,1295.6L1149.1,1295.6z"></path>
			</g>
		</g>
	</g>
</g>
</svg>
